<svg width="45" height="45" fill="none"><g fill="#0868F9" clip-path="url(#a)" filter="url(#b)"><path d="M16.875 20.625a7.5 7.5 0 1 0 0-15 7.5 7.5 0 0 0 0 15Zm0-11.25a3.75 3.75 0 1 1 0 7.5 3.75 3.75 0 0 1 0-7.5ZM31.875 24.375a5.625 5.625 0 1 0 0-11.25 5.625 5.625 0 0 0 0 11.25Zm0-7.5a1.875 1.875 0 1 1 0 3.75 1.875 1.875 0 0 1 0-3.75ZM31.875 26.25a9.375 9.375 0 0 0-5.738 1.969A13.125 13.125 0 0 0 3.75 37.5a1.875 1.875 0 1 0 3.75 0 9.375 9.375 0 0 1 18.75 0 1.875 1.875 0 1 0 3.75 0 12.938 12.938 0 0 0-1.613-6.281 5.625 5.625 0 0 1 9.113 4.406 1.875 1.875 0 1 0 3.75 0 9.375 9.375 0 0 0-9.375-9.375Z"/></g><defs><clipPath id="a"><path fill="#fff" d="M0 0h45v45H0z"/></clipPath><filter id="b" width="45" height="49" x="0" y="0" color-interpolation-filters="sRGB" filterUnits="userSpaceOnUse"><feFlood flood-opacity="0" result="BackgroundImageFix"/><feBlend in="SourceGraphic" in2="BackgroundImageFix" result="shape"/><feColorMatrix in="SourceAlpha" result="hardAlpha" values="0 0 0 0 0 0 0 0 0 0 0 0 0 0 0 0 0 0 127 0"/><feOffset dy="4"/><feGaussianBlur stdDeviation="2"/><feComposite in2="hardAlpha" k2="-1" k3="1" operator="arithmetic"/><feColorMatrix values="0 0 0 0 0 0 0 0 0 0 0 0 0 0 0 0 0 0 0.25 0"/><feBlend in2="shape" result="effect1_innerShadow_46_434"/></filter></defs></svg>