<svg width="45" height="45" fill="none"><g clip-path="url(#a)"><path fill="#3B3A5B" d="M32.925 39.375c-.3.001-.596-.07-.862-.206L22.5 34.162l-9.563 5.007a1.875 1.875 0 0 1-2.718-1.988l1.875-10.556-7.725-7.5A1.875 1.875 0 0 1 3.9 17.25a1.875 1.875 0 0 1 1.519-1.275l10.687-1.556 4.706-9.62a1.874 1.874 0 0 1 3.375 0l4.763 9.6 10.688 1.557a1.876 1.876 0 0 1 1.518 1.275 1.876 1.876 0 0 1-.468 1.875l-7.726 7.5 1.875 10.556a1.875 1.875 0 0 1-.75 1.875c-.339.238-.748.357-1.162.338ZM22.5 30.187c.3-.007.598.064.863.207l7.068 3.75-1.35-7.894a1.876 1.876 0 0 1 .544-1.669l5.625-5.494-7.875-1.162a1.875 1.875 0 0 1-1.331-1.05L22.5 9.844l-3.544 7.03a1.874 1.874 0 0 1-1.406 1.013L9.675 19.05l5.625 5.494a1.875 1.875 0 0 1 .544 1.668l-1.35 7.8 7.069-3.75c.299-.111.624-.137.937-.075Z"/></g><defs><clipPath id="a"><path fill="#fff" d="M0 0h45v45H0z"/></clipPath></defs></svg>